<svg width="14" height="18" viewBox="0 0 14 18" fill="none" xmlns="http://www.w3.org/2000/svg">
<path d="M13.1726 8.30894C13.1513 8.21879 13.1081 8.13529 13.0468 8.06586C12.9854 7.99643 12.9079 7.94323 12.8211 7.91097L8.77037 6.39152L9.80115 1.2355C9.82449 1.1157 9.80824 0.991566 9.75483 0.881818C9.70143 0.77207 9.61378 0.682668 9.50512 0.627104C9.39645 0.571539 9.27266 0.552826 9.15242 0.57379C9.03218 0.594753 8.92203 0.654254 8.83857 0.743315L0.963573 9.18082C0.899613 9.24821 0.853344 9.3304 0.828899 9.42004C0.804454 9.50968 0.802594 9.60398 0.823487 9.69451C0.844379 9.78505 0.887373 9.869 0.948626 9.93886C1.00988 10.0087 1.08749 10.0623 1.17451 10.0949L5.22662 11.6143L4.19865 16.7647C4.17531 16.8845 4.19157 17.0087 4.24497 17.1184C4.29837 17.2282 4.38602 17.3176 4.49469 17.3731C4.60335 17.4287 4.72715 17.4474 4.84738 17.4264C4.96762 17.4055 5.07778 17.346 5.16123 17.2569L13.0362 8.81941C13.099 8.752 13.1443 8.6702 13.1681 8.58119C13.1919 8.49218 13.1934 8.39869 13.1726 8.30894ZM5.68998 15.047L6.42615 11.364C6.4525 11.2334 6.43162 11.0977 6.36724 10.981C6.30285 10.8643 6.19915 10.7743 6.07459 10.727L2.35928 9.33128L8.30912 2.95675L7.57365 6.63972C7.5473 6.77034 7.56818 6.90607 7.63256 7.02273C7.69695 7.1394 7.80066 7.22941 7.92521 7.27675L11.6377 8.66894L5.68998 15.047Z" fill="white"/>
</svg>
