<svg width="17" height="13" viewBox="0 0 17 13" fill="none" xmlns="http://www.w3.org/2000/svg">
<path d="M17.0001 7.56238C17.0001 7.71157 16.9408 7.85464 16.8353 7.96013C16.7298 8.06562 16.5867 8.12488 16.4376 8.12488H15.3126V9.24988C15.3126 9.39907 15.2533 9.54214 15.1478 9.64763C15.0423 9.75312 14.8992 9.81238 14.7501 9.81238C14.6009 9.81238 14.4578 9.75312 14.3523 9.64763C14.2468 9.54214 14.1876 9.39907 14.1876 9.24988V8.12488H13.0626C12.9134 8.12488 12.7703 8.06562 12.6648 7.96013C12.5593 7.85464 12.5001 7.71157 12.5001 7.56238C12.5001 7.4132 12.5593 7.27012 12.6648 7.16463C12.7703 7.05914 12.9134 6.99988 13.0626 6.99988H14.1876V5.87488C14.1876 5.7257 14.2468 5.58262 14.3523 5.47713C14.4578 5.37165 14.6009 5.31238 14.7501 5.31238C14.8992 5.31238 15.0423 5.37165 15.1478 5.47713C15.2533 5.58262 15.3126 5.7257 15.3126 5.87488V6.99988H16.4376C16.5867 6.99988 16.7298 7.05914 16.8353 7.16463C16.9408 7.27012 17.0001 7.4132 17.0001 7.56238ZM12.9311 11.7003C13.0271 11.8146 13.0738 11.9624 13.0609 12.1111C13.048 12.2598 12.9765 12.3974 12.8622 12.4934C12.7479 12.5894 12.6001 12.6361 12.4513 12.6232C12.3026 12.6103 12.1651 12.5388 12.069 12.4245C10.6544 10.7398 8.70951 9.81238 6.59381 9.81238C4.47811 9.81238 2.53326 10.7398 1.11858 12.4245C1.02254 12.5387 0.885062 12.6101 0.736389 12.623C0.587715 12.6358 0.440023 12.5891 0.325804 12.493C0.211584 12.397 0.140194 12.2595 0.127338 12.1109C0.114481 11.9622 0.161212 11.8145 0.257249 11.7003C1.30772 10.4501 2.61412 9.56207 4.06608 9.08676C3.18429 8.53755 2.50537 7.7161 2.13202 6.74667C1.75867 5.77724 1.71121 4.7126 1.99682 3.7138C2.28243 2.715 2.88556 1.83639 3.71499 1.2109C4.54441 0.585409 5.55498 0.24707 6.59381 0.24707C7.63265 0.24707 8.64322 0.585409 9.47264 1.2109C10.3021 1.83639 10.9052 2.715 11.1908 3.7138C11.4764 4.7126 11.429 5.77724 11.0556 6.74667C10.6823 7.7161 10.0033 8.53755 9.12155 9.08676C10.5735 9.56207 11.8799 10.4501 12.9311 11.7003ZM6.59381 8.68738C7.31695 8.68738 8.02385 8.47295 8.62512 8.07119C9.22638 7.66944 9.69501 7.09841 9.97175 6.43032C10.2485 5.76223 10.3209 5.02708 10.1798 4.31783C10.0387 3.60859 9.69051 2.95711 9.17917 2.44577C8.66783 1.93444 8.01635 1.58621 7.30711 1.44514C6.59787 1.30406 5.86272 1.37646 5.19463 1.6532C4.52653 1.92993 3.9555 2.39856 3.55375 2.99983C3.152 3.6011 2.93756 4.30799 2.93756 5.03113C2.93868 6.00049 3.32425 6.92982 4.00969 7.61526C4.69512 8.3007 5.62446 8.68627 6.59381 8.68738Z" fill="white"/>
</svg>
