<svg width="14" height="14" viewBox="0 0 14 14" fill="none" xmlns="http://www.w3.org/2000/svg">
<path d="M13.7501 7.00007C13.7501 7.14925 13.6908 7.29233 13.5853 7.39782C13.4798 7.50331 13.3368 7.56257 13.1876 7.56257H7.00007C6.85088 7.56257 6.70781 7.50331 6.60232 7.39782C6.49683 7.29233 6.43757 7.14925 6.43757 7.00007C6.43757 6.85088 6.49683 6.70781 6.60232 6.60232C6.70781 6.49683 6.85088 6.43757 7.00007 6.43757H13.1876C13.3368 6.43757 13.4798 6.49683 13.5853 6.60232C13.6908 6.70781 13.7501 6.85088 13.7501 7.00007ZM7.00007 3.06257H13.1876C13.3368 3.06257 13.4798 3.00331 13.5853 2.89782C13.6908 2.79233 13.7501 2.64925 13.7501 2.50007C13.7501 2.35088 13.6908 2.20781 13.5853 2.10232C13.4798 1.99683 13.3368 1.93757 13.1876 1.93757H7.00007C6.85088 1.93757 6.70781 1.99683 6.60232 2.10232C6.49683 2.20781 6.43757 2.35088 6.43757 2.50007C6.43757 2.64925 6.49683 2.79233 6.60232 2.89782C6.70781 3.00331 6.85088 3.06257 7.00007 3.06257ZM13.1876 10.9376H7.00007C6.85088 10.9376 6.70781 10.9968 6.60232 11.1023C6.49683 11.2078 6.43757 11.3509 6.43757 11.5001C6.43757 11.6493 6.49683 11.7923 6.60232 11.8978C6.70781 12.0033 6.85088 12.0626 7.00007 12.0626H13.1876C13.3368 12.0626 13.4798 12.0033 13.5853 11.8978C13.6908 11.7923 13.7501 11.6493 13.7501 11.5001C13.7501 11.3509 13.6908 11.2078 13.5853 11.1023C13.4798 10.9968 13.3368 10.9376 13.1876 10.9376ZM3.7896 0.9771L1.93757 2.82983L1.21054 2.1021C1.10499 1.99655 0.961836 1.93726 0.812569 1.93726C0.663301 1.93726 0.520148 1.99655 0.4146 2.1021C0.309052 2.20765 0.249756 2.3508 0.249756 2.50007C0.249756 2.64934 0.309052 2.79249 0.4146 2.89804L1.5396 4.02304C1.59184 4.07534 1.65388 4.11683 1.72216 4.14513C1.79045 4.17344 1.86365 4.18801 1.93757 4.18801C2.01149 4.18801 2.08469 4.17344 2.15297 4.14513C2.22126 4.11683 2.2833 4.07534 2.33554 4.02304L4.58554 1.77304C4.69109 1.66749 4.75038 1.52434 4.75038 1.37507C4.75038 1.2258 4.69109 1.08265 4.58554 0.9771C4.47999 0.871552 4.33684 0.812256 4.18757 0.812256C4.0383 0.812256 3.89515 0.871552 3.7896 0.9771ZM3.7896 5.4771L1.93757 7.32983L1.21054 6.6021C1.10499 6.49655 0.961836 6.43726 0.812569 6.43726C0.663301 6.43726 0.520148 6.49655 0.4146 6.6021C0.309052 6.70765 0.249756 6.8508 0.249756 7.00007C0.249756 7.07398 0.264313 7.14716 0.292597 7.21545C0.320881 7.28373 0.362338 7.34578 0.4146 7.39804L1.5396 8.52304C1.59184 8.57534 1.65388 8.61683 1.72216 8.64513C1.79045 8.67344 1.86365 8.68801 1.93757 8.68801C2.01149 8.68801 2.08469 8.67344 2.15297 8.64513C2.22126 8.61683 2.2833 8.57534 2.33554 8.52304L4.58554 6.27304C4.69109 6.16749 4.75038 6.02434 4.75038 5.87507C4.75038 5.7258 4.69109 5.58265 4.58554 5.4771C4.47999 5.37155 4.33684 5.31226 4.18757 5.31226C4.0383 5.31226 3.89515 5.37155 3.7896 5.4771ZM3.7896 9.9771L1.93757 11.8298L1.21054 11.1021C1.15828 11.0498 1.09623 11.0084 1.02795 10.9801C0.959664 10.9518 0.886478 10.9373 0.812569 10.9373C0.738659 10.9373 0.665473 10.9518 0.597189 10.9801C0.528906 11.0084 0.466862 11.0498 0.4146 11.1021C0.362338 11.1544 0.320881 11.2164 0.292597 11.2847C0.264313 11.353 0.249756 11.4262 0.249756 11.5001C0.249756 11.574 0.264313 11.6472 0.292597 11.7154C0.320881 11.7837 0.362338 11.8458 0.4146 11.898L1.5396 13.023C1.59184 13.0753 1.65388 13.1168 1.72216 13.1451C1.79045 13.1734 1.86365 13.188 1.93757 13.188C2.01149 13.188 2.08469 13.1734 2.15297 13.1451C2.22126 13.1168 2.2833 13.0753 2.33554 13.023L4.58554 10.773C4.69109 10.6675 4.75038 10.5243 4.75038 10.3751C4.75038 10.2258 4.69109 10.0826 4.58554 9.9771C4.47999 9.87155 4.33684 9.81225 4.18757 9.81225C4.0383 9.81225 3.89515 9.87155 3.7896 9.9771Z" fill="#B8B9BD"/>
</svg>
