<svg width="9" height="13" viewBox="0 0 9 13" fill="none" xmlns="http://www.w3.org/2000/svg">
<path d="M4.83708 12.1591C4.05678 12.1591 3.35981 12.0246 2.74617 11.7557C2.13632 11.4867 1.65337 11.1136 1.29731 10.6364C0.945035 10.1553 0.755641 9.59848 0.729126 8.96591H2.51322C2.53594 9.31061 2.65147 9.60985 2.85981 9.86364C3.07193 10.1136 3.34844 10.3068 3.68935 10.4432C4.03026 10.5795 4.40905 10.6477 4.82572 10.6477C5.28405 10.6477 5.68935 10.5682 6.04163 10.4091C6.39769 10.25 6.6761 10.0284 6.87685 9.74432C7.07761 9.45644 7.17799 9.125 7.17799 8.75C7.17799 8.35985 7.07761 8.01705 6.87685 7.72159C6.67988 7.42235 6.39011 7.1875 6.00754 7.01705C5.62875 6.84659 5.17041 6.76136 4.63253 6.76136H3.64958V5.32955H4.63253C5.06435 5.32955 5.44314 5.25189 5.7689 5.09659C6.09844 4.94129 6.35602 4.72538 6.54163 4.44886C6.72723 4.16856 6.82004 3.84091 6.82004 3.46591C6.82004 3.10606 6.7386 2.79356 6.57572 2.52841C6.41663 2.25947 6.18935 2.04924 5.8939 1.89773C5.60223 1.74621 5.25754 1.67045 4.85981 1.67045C4.48102 1.67045 4.12685 1.74053 3.79731 1.88068C3.47155 2.01705 3.2064 2.21402 3.00185 2.47159C2.79731 2.72538 2.68746 3.0303 2.67231 3.38636H0.973444C0.992384 2.75758 1.17799 2.20455 1.53026 1.72727C1.88632 1.25 2.35602 0.876893 2.93935 0.607954C3.52269 0.339015 4.17041 0.204545 4.88254 0.204545C5.62875 0.204545 6.27269 0.350378 6.81435 0.642045C7.35981 0.929924 7.78026 1.31439 8.07572 1.79545C8.37496 2.27651 8.52269 2.80303 8.5189 3.375C8.52269 4.02652 8.34087 4.57955 7.97344 5.03409C7.60981 5.48864 7.12496 5.79356 6.5189 5.94886V6.03977C7.29163 6.1572 7.89011 6.46402 8.31435 6.96023C8.74238 7.45644 8.9545 8.07197 8.95072 8.80682C8.9545 9.44697 8.77647 10.0208 8.41663 10.5284C8.06057 11.036 7.57382 11.4356 6.9564 11.7273C6.33897 12.0152 5.63254 12.1591 4.83708 12.1591Z" fill="white"/>
</svg>
